STARTFONT 2.1
COMMENT converted Oberon font (using FontToBDF by R.Crelier 10.1.91)
FONT Times14b.Scn.Fnt
SIZE 14 75 75
FONTBOUNDINGBOX  14 16 0 -4
STARTPROPERTIES 3
FONT_ASCENT 12
FONT_DESCENT 4
DEFAULT_CHAR 0
ENDPROPERTIES
CHARS 121
STARTCHAR c0
ENCODING -1 0
SWIDTH 0 0
DWIDTH 0 0
BBX 0 0 0 0
BITMAP
ENDCHAR
STARTCHAR c9
ENCODING -1 9
SWIDTH 387 0
DWIDTH 12 0
BBX 0 0 0 0
BITMAP
ENDCHAR
STARTCHAR c32
ENCODING -1 32
SWIDTH 96 0
DWIDTH 3 0
BBX 0 0 0 0
BITMAP
ENDCHAR
STARTCHAR c33
ENCODING -1 33
SWIDTH 161 0
DWIDTH 5 0
BBX 2 10 2 0
BITMAP
C0
C0
C0
C0
80
80
80
00
C0
C0
ENDCHAR
STARTCHAR c34
ENCODING -1 34
SWIDTH 225 0
DWIDTH 7 0
BBX 5 5 1 5
BITMAP
D8
D8
48
48
90
ENDCHAR
STARTCHAR c35
ENCODING -1 35
SWIDTH 322 0
DWIDTH 10 0
BBX 8 10 1 0
BITMAP
12
12
7F
7F
24
24
FE
FE
48
48
ENDCHAR
STARTCHAR c36
ENCODING -1 36
SWIDTH 322 0
DWIDTH 10 0
BBX 8 14 1 -2
BITMAP
08
08
7F
CB
C9
C8
FE
7F
13
93
D3
FE
10
10
ENDCHAR
STARTCHAR c37
ENCODING -1 37
SWIDTH 419 0
DWIDTH 13 0
BBX 11 10 1 0
BITMAP
7100
D900
DA00
DA00
7400
05C0
0B60
0B60
1360
11C0
ENDCHAR
STARTCHAR c38
ENCODING -1 38
SWIDTH 322 0
DWIDTH 10 0
BBX 8 10 1 0
BITMAP
18
34
34
18
3B
5A
CC
CC
CF
76
ENDCHAR
STARTCHAR c39
ENCODING -1 39
SWIDTH 129 0
DWIDTH 4 0
BBX 2 5 1 5
BITMAP
C0
C0
40
40
80
ENDCHAR
STARTCHAR c40
ENCODING -1 40
SWIDTH 193 0
DWIDTH 6 0
BBX 4 14 1 -3
BITMAP
10
20
40
40
80
80
80
80
80
80
40
40
20
10
ENDCHAR
STARTCHAR c41
ENCODING -1 41
SWIDTH 193 0
DWIDTH 6 0
BBX 4 14 0 -3
BITMAP
80
40
20
20
10
10
10
10
10
10
20
20
40
80
ENDCHAR
STARTCHAR c42
ENCODING -1 42
SWIDTH 258 0
DWIDTH 8 0
BBX 7 9 0 0
BITMAP
10
10
92
54
38
54
92
10
10
ENDCHAR
STARTCHAR c43
ENCODING -1 43
SWIDTH 258 0
DWIDTH 8 0
BBX 7 9 0 0
BITMAP
10
10
10
10
FE
10
10
10
10
ENDCHAR
STARTCHAR c44
ENCODING -1 44
SWIDTH 129 0
DWIDTH 4 0
BBX 2 5 1 -3
BITMAP
C0
C0
40
40
80
ENDCHAR
STARTCHAR c45
ENCODING -1 45
SWIDTH 258 0
DWIDTH 8 0
BBX 7 1 0 4
BITMAP
FE
ENDCHAR
STARTCHAR c46
ENCODING -1 46
SWIDTH 129 0
DWIDTH 4 0
BBX 2 2 1 0
BITMAP
C0
C0
ENDCHAR
STARTCHAR c47
ENCODING -1 47
SWIDTH 258 0
DWIDTH 8 0
BBX 6 12 0 -1
BITMAP
04
04
08
08
10
10
20
20
40
40
80
80
ENDCHAR
STARTCHAR c48
ENCODING -1 48
SWIDTH 258 0
DWIDTH 8 0
BBX 6 10 1 0
BITMAP
78
CC
CC
CC
CC
CC
CC
CC
CC
78
ENDCHAR
STARTCHAR c49
ENCODING -1 49
SWIDTH 258 0
DWIDTH 8 0
BBX 6 10 1 0
BITMAP
30
F0
30
30
30
30
30
30
30
FC
ENDCHAR
STARTCHAR c50
ENCODING -1 50
SWIDTH 258 0
DWIDTH 8 0
BBX 6 10 1 0
BITMAP
78
8C
0C
0C
18
18
30
60
C4
FC
ENDCHAR
STARTCHAR c51
ENCODING -1 51
SWIDTH 258 0
DWIDTH 8 0
BBX 6 10 1 0
BITMAP
78
8C
0C
08
70
08
0C
0C
C8
F0
ENDCHAR
STARTCHAR c52
ENCODING -1 52
SWIDTH 258 0
DWIDTH 8 0
BBX 8 10 0 0
BITMAP
0C
1C
2C
2C
4C
8C
FF
0C
0C
0C
ENDCHAR
STARTCHAR c53
ENCODING -1 53
SWIDTH 258 0
DWIDTH 8 0
BBX 6 10 1 0
BITMAP
F8
F8
80
80
F8
FC
0C
0C
88
F0
ENDCHAR
STARTCHAR c54
ENCODING -1 54
SWIDTH 258 0
DWIDTH 8 0
BBX 6 10 1 0
BITMAP
1C
70
60
C0
D8
EC
CC
CC
CC
78
ENDCHAR
STARTCHAR c55
ENCODING -1 55
SWIDTH 258 0
DWIDTH 8 0
BBX 6 10 1 0
BITMAP
FC
FC
08
18
18
10
30
30
20
60
ENDCHAR
STARTCHAR c56
ENCODING -1 56
SWIDTH 258 0
DWIDTH 8 0
BBX 6 10 1 0
BITMAP
78
C4
C4
E8
70
38
5C
8C
8C
78
ENDCHAR
STARTCHAR c57
ENCODING -1 57
SWIDTH 258 0
DWIDTH 8 0
BBX 6 10 1 0
BITMAP
78
CC
CC
CC
DC
6C
0C
18
38
E0
ENDCHAR
STARTCHAR c58
ENCODING -1 58
SWIDTH 161 0
DWIDTH 5 0
BBX 2 8 2 0
BITMAP
C0
C0
00
00
00
00
C0
C0
ENDCHAR
STARTCHAR c59
ENCODING -1 59
SWIDTH 161 0
DWIDTH 5 0
BBX 2 11 2 -3
BITMAP
C0
C0
00
00
00
00
C0
C0
40
40
80
ENDCHAR
STARTCHAR c60
ENCODING -1 60
SWIDTH 322 0
DWIDTH 10 0
BBX 8 8 1 0
BITMAP
03
0C
30
C0
C0
30
0C
03
ENDCHAR
STARTCHAR c61
ENCODING -1 61
SWIDTH 290 0
DWIDTH 9 0
BBX 7 4 1 2
BITMAP
FE
00
00
FE
ENDCHAR
STARTCHAR c62
ENCODING -1 62
SWIDTH 322 0
DWIDTH 10 0
BBX 8 8 1 0
BITMAP
C0
30
0C
03
03
0C
30
C0
ENDCHAR
STARTCHAR c63
ENCODING -1 63
SWIDTH 225 0
DWIDTH 7 0
BBX 5 10 1 0
BITMAP
70
98
18
18
30
20
20
00
60
60
ENDCHAR
STARTCHAR c64
ENCODING -1 64
SWIDTH 451 0
DWIDTH 14 0
BBX 12 13 1 -3
BITMAP
0FC0
3020
4010
4390
8D90
8990
9B10
9B20
9F20
9BC0
4000
2000
1F80
ENDCHAR
STARTCHAR c65
ENCODING -1 65
SWIDTH 290 0
DWIDTH 9 0
BBX 9 10 0 0
BITMAP
0C00
0C00
1400
1600
2600
3E00
2300
4300
4300
E780
ENDCHAR
STARTCHAR c66
ENCODING -1 66
SWIDTH 322 0
DWIDTH 10 0
BBX 7 10 1 0
BITMAP
FC
66
66
66
7C
64
66
66
66
FC
ENDCHAR
STARTCHAR c67
ENCODING -1 67
SWIDTH 322 0
DWIDTH 10 0
BBX 8 10 1 0
BITMAP
1F
63
61
C1
E0
C0
E0
61
63
1E
ENDCHAR
STARTCHAR c68
ENCODING -1 68
SWIDTH 387 0
DWIDTH 12 0
BBX 9 10 1 0
BITMAP
FC00
6300
6300
6180
6380
6180
6380
6300
6300
FC00
ENDCHAR
STARTCHAR c69
ENCODING -1 69
SWIDTH 322 0
DWIDTH 10 0
BBX 8 10 1 0
BITMAP
FF
63
61
64
7C
64
60
61
63
FF
ENDCHAR
STARTCHAR c70
ENCODING -1 70
SWIDTH 290 0
DWIDTH 9 0
BBX 8 10 1 0
BITMAP
FF
63
61
64
7C
64
60
60
60
F0
ENDCHAR
STARTCHAR c71
ENCODING -1 71
SWIDTH 354 0
DWIDTH 11 0
BBX 9 10 1 0
BITMAP
1F00
6300
6100
C000
E000
C780
E300
6300
6300
1F00
ENDCHAR
STARTCHAR c72
ENCODING -1 72
SWIDTH 354 0
DWIDTH 11 0
BBX 9 10 1 0
BITMAP
F780
6300
6300
6300
7F00
6300
6300
6300
6300
F780
ENDCHAR
STARTCHAR c73
ENCODING -1 73
SWIDTH 193 0
DWIDTH 6 0
BBX 4 10 1 0
BITMAP
F0
60
60
60
60
60
60
60
60
F0
ENDCHAR
STARTCHAR c74
ENCODING -1 74
SWIDTH 225 0
DWIDTH 7 0
BBX 6 10 0 0
BITMAP
3C
18
18
18
18
18
18
D8
D8
F0
ENDCHAR
STARTCHAR c75
ENCODING -1 75
SWIDTH 322 0
DWIDTH 10 0
BBX 9 10 1 0
BITMAP
F380
6100
6200
6400
6C00
6C00
6600
6600
6300
F380
ENDCHAR
STARTCHAR c76
ENCODING -1 76
SWIDTH 258 0
DWIDTH 8 0
BBX 7 10 1 0
BITMAP
F0
60
60
60
60
60
62
62
66
FE
ENDCHAR
STARTCHAR c77
ENCODING -1 77
SWIDTH 451 0
DWIDTH 14 0
BBX 12 10 1 0
BITMAP
F0F0
70E0
5160
5960
5960
5B60
5A60
4A60
4E60
EEF0
ENDCHAR
STARTCHAR c78
ENCODING -1 78
SWIDTH 354 0
DWIDTH 11 0
BBX 9 10 1 0
BITMAP
F380
7100
5900
5900
4D00
4D00
4700
4700
4300
E300
ENDCHAR
STARTCHAR c79
ENCODING -1 79
SWIDTH 387 0
DWIDTH 12 0
BBX 10 10 1 0
BITMAP
1E00
6180
6180
C0C0
E1C0
C0C0
E1C0
6180
6180
1E00
ENDCHAR
STARTCHAR c80
ENCODING -1 80
SWIDTH 290 0
DWIDTH 9 0
BBX 8 10 1 0
BITMAP
FE
63
63
63
7E
60
60
60
60
F0
ENDCHAR
STARTCHAR c81
ENCODING -1 81
SWIDTH 387 0
DWIDTH 12 0
BBX 10 13 1 -3
BITMAP
1E00
6180
6180
C0C0
E1C0
C0C0
E1C0
6180
6180
1E00
0700
0380
01C0
ENDCHAR
STARTCHAR c82
ENCODING -1 82
SWIDTH 322 0
DWIDTH 10 0
BBX 9 10 1 0
BITMAP
FE00
6300
6300
6300
7E00
6C00
6600
6600
6300
F380
ENDCHAR
STARTCHAR c83
ENCODING -1 83
SWIDTH 290 0
DWIDTH 9 0
BBX 7 10 1 0
BITMAP
3E
E6
C2
E0
FC
7E
0E
86
CE
F8
ENDCHAR
STARTCHAR c84
ENCODING -1 84
SWIDTH 258 0
DWIDTH 8 0
BBX 8 10 0 0
BITMAP
FF
DB
99
18
18
18
18
18
18
3C
ENDCHAR
STARTCHAR c85
ENCODING -1 85
SWIDTH 354 0
DWIDTH 11 0
BBX 9 10 1 0
BITMAP
F380
6100
6100
6100
6100
6100
6100
6100
7300
3E00
ENDCHAR
STARTCHAR c86
ENCODING -1 86
SWIDTH 290 0
DWIDTH 9 0
BBX 9 10 0 0
BITMAP
F380
6100
6100
6200
3200
3200
3400
1400
1800
1800
ENDCHAR
STARTCHAR c87
ENCODING -1 87
SWIDTH 451 0
DWIDTH 14 0
BBX 14 10 0 0
BITMAP
F79C
6308
6308
6310
3390
35A0
35A0
18C0
18C0
18C0
ENDCHAR
STARTCHAR c88
ENCODING -1 88
SWIDTH 322 0
DWIDTH 10 0
BBX 8 10 1 0
BITMAP
F7
62
34
34
18
18
2C
2C
46
EF
ENDCHAR
STARTCHAR c89
ENCODING -1 89
SWIDTH 290 0
DWIDTH 9 0
BBX 9 10 0 0
BITMAP
F780
6300
6200
3400
3400
1800
1800
1800
1800
3C00
ENDCHAR
STARTCHAR c90
ENCODING -1 90
SWIDTH 290 0
DWIDTH 9 0
BBX 7 10 1 0
BITMAP
FE
CC
8C
98
18
30
32
62
66
FE
ENDCHAR
STARTCHAR c91
ENCODING -1 91
SWIDTH 193 0
DWIDTH 6 0
BBX 3 14 2 -3
BITMAP
E0
80
80
80
80
80
80
80
80
80
80
80
80
E0
ENDCHAR
STARTCHAR c92
ENCODING -1 92
SWIDTH 258 0
DWIDTH 8 0
BBX 6 12 1 -1
BITMAP
80
80
40
40
20
20
10
10
08
08
04
04
ENDCHAR
STARTCHAR c93
ENCODING -1 93
SWIDTH 193 0
DWIDTH 6 0
BBX 3 14 1 -3
BITMAP
E0
20
20
20
20
20
20
20
20
20
20
20
20
E0
ENDCHAR
STARTCHAR c94
ENCODING -1 94
SWIDTH 290 0
DWIDTH 9 0
BBX 7 8 1 0
BITMAP
10
38
54
92
10
10
10
10
ENDCHAR
STARTCHAR c95
ENCODING -1 95
SWIDTH 161 0
DWIDTH 5 0
BBX 4 1 0 4
BITMAP
F0
ENDCHAR
STARTCHAR c96
ENCODING -1 96
SWIDTH 258 0
DWIDTH 8 0
BBX 3 3 1 9
BITMAP
C0
40
20
ENDCHAR
STARTCHAR c97
ENCODING -1 97
SWIDTH 258 0
DWIDTH 8 0
BBX 7 8 0 0
BITMAP
78
CC
0C
3C
CC
CC
DC
EE
ENDCHAR
STARTCHAR c98
ENCODING -1 98
SWIDTH 290 0
DWIDTH 9 0
BBX 7 11 0 0
BITMAP
E0
60
60
6C
7E
66
66
66
66
64
78
ENDCHAR
STARTCHAR c99
ENCODING -1 99
SWIDTH 258 0
DWIDTH 8 0
BBX 6 8 1 0
BITMAP
78
CC
CC
C0
C0
C0
CC
78
ENDCHAR
STARTCHAR c100
ENCODING -1 100
SWIDTH 290 0
DWIDTH 9 0
BBX 7 11 1 0
BITMAP
1C
0C
0C
3C
4C
CC
CC
CC
CC
FC
6E
ENDCHAR
STARTCHAR c101
ENCODING -1 101
SWIDTH 258 0
DWIDTH 8 0
BBX 6 8 1 0
BITMAP
38
4C
CC
FC
C0
C0
E4
78
ENDCHAR
STARTCHAR c102
ENCODING -1 102
SWIDTH 161 0
DWIDTH 5 0
BBX 5 11 0 0
BITMAP
38
68
60
F8
60
60
60
60
60
60
F0
ENDCHAR
STARTCHAR c103
ENCODING -1 103
SWIDTH 258 0
DWIDTH 8 0
BBX 7 11 1 -3
BITMAP
7E
CC
CC
CC
78
80
F8
7C
84
84
78
ENDCHAR
STARTCHAR c104
ENCODING -1 104
SWIDTH 290 0
DWIDTH 9 0
BBX 8 11 0 0
BITMAP
E0
60
60
6E
76
66
66
66
66
66
FF
ENDCHAR
STARTCHAR c105
ENCODING -1 105
SWIDTH 161 0
DWIDTH 5 0
BBX 4 11 0 0
BITMAP
60
60
00
E0
60
60
60
60
60
60
F0
ENDCHAR
STARTCHAR c106
ENCODING -1 106
SWIDTH 161 0
DWIDTH 5 0
BBX 3 14 0 -3
BITMAP
60
60
00
E0
60
60
60
60
60
60
60
60
60
C0
ENDCHAR
STARTCHAR c107
ENCODING -1 107
SWIDTH 258 0
DWIDTH 8 0
BBX 8 11 0 0
BITMAP
E0
60
60
67
62
64
68
7C
6C
66
F7
ENDCHAR
STARTCHAR c108
ENCODING -1 108
SWIDTH 161 0
DWIDTH 5 0
BBX 4 11 0 0
BITMAP
E0
60
60
60
60
60
60
60
60
60
F0
ENDCHAR
STARTCHAR c109
ENCODING -1 109
SWIDTH 419 0
DWIDTH 13 0
BBX 12 8 0 0
BITMAP
EEE0
7760
6660
6660
6660
6660
6660
FFF0
ENDCHAR
STARTCHAR c110
ENCODING -1 110
SWIDTH 290 0
DWIDTH 9 0
BBX 8 8 0 0
BITMAP
EE
76
66
66
66
66
66
F7
ENDCHAR
STARTCHAR c111
ENCODING -1 111
SWIDTH 290 0
DWIDTH 9 0
BBX 6 8 1 0
BITMAP
78
CC
CC
CC
CC
CC
CC
78
ENDCHAR
STARTCHAR c112
ENCODING -1 112
SWIDTH 290 0
DWIDTH 9 0
BBX 7 11 0 -3
BITMAP
EC
7E
66
66
66
66
64
78
60
60
F0
ENDCHAR
STARTCHAR c113
ENCODING -1 113
SWIDTH 290 0
DWIDTH 9 0
BBX 7 11 1 -3
BITMAP
3C
4C
CC
CC
CC
CC
FC
6C
0C
0C
1E
ENDCHAR
STARTCHAR c114
ENCODING -1 114
SWIDTH 193 0
DWIDTH 6 0
BBX 6 8 0 0
BITMAP
EC
7C
6C
60
60
60
60
F0
ENDCHAR
STARTCHAR c115
ENCODING -1 115
SWIDTH 258 0
DWIDTH 8 0
BBX 5 8 1 0
BITMAP
78
D8
C8
F0
78
98
D8
F0
ENDCHAR
STARTCHAR c116
ENCODING -1 116
SWIDTH 161 0
DWIDTH 5 0
BBX 5 10 0 0
BITMAP
20
60
F8
60
60
60
60
60
68
70
ENDCHAR
STARTCHAR c117
ENCODING -1 117
SWIDTH 290 0
DWIDTH 9 0
BBX 8 8 0 0
BITMAP
EE
66
66
66
66
66
6E
77
ENDCHAR
STARTCHAR c118
ENCODING -1 118
SWIDTH 225 0
DWIDTH 7 0
BBX 7 8 0 0
BITMAP
EE
64
64
68
28
38
30
30
ENDCHAR
STARTCHAR c119
ENCODING -1 119
SWIDTH 354 0
DWIDTH 11 0
BBX 11 8 0 0
BITMAP
EEE0
6640
6640
6E80
2A80
3B80
3300
3300
ENDCHAR
STARTCHAR c120
ENCODING -1 120
SWIDTH 225 0
DWIDTH 7 0
BBX 6 8 0 0
BITMAP
FC
68
68
30
30
58
58
FC
ENDCHAR
STARTCHAR c121
ENCODING -1 121
SWIDTH 225 0
DWIDTH 7 0
BBX 7 11 0 -3
BITMAP
EE
64
64
68
28
38
30
30
20
E0
C0
ENDCHAR
STARTCHAR c122
ENCODING -1 122
SWIDTH 225 0
DWIDTH 7 0
BBX 6 8 0 0
BITMAP
FC
98
98
30
30
64
64
FC
ENDCHAR
STARTCHAR c123
ENCODING -1 123
SWIDTH 193 0
DWIDTH 6 0
BBX 5 15 0 -3
BITMAP
18
20
20
20
20
20
20
C0
20
20
20
20
20
20
18
ENDCHAR
STARTCHAR c124
ENCODING -1 124
SWIDTH 193 0
DWIDTH 6 0
BBX 1 14 2 -3
BITMAP
80
80
80
80
80
80
80
80
80
80
80
80
80
80
ENDCHAR
STARTCHAR c125
ENCODING -1 125
SWIDTH 193 0
DWIDTH 6 0
BBX 5 15 0 -3
BITMAP
C0
20
20
20
20
20
20
18
20
20
20
20
20
20
C0
ENDCHAR
STARTCHAR c126
ENCODING -1 126
SWIDTH 290 0
DWIDTH 9 0
BBX 8 3 0 3
BITMAP
71
99
8E
ENDCHAR
STARTCHAR c128
ENCODING -1 128
SWIDTH 290 0
DWIDTH 9 0
BBX 9 12 0 0
BITMAP
3300
0000
0C00
0C00
1400
1600
2600
3E00
2300
4300
4300
E780
ENDCHAR
STARTCHAR c129
ENCODING -1 129
SWIDTH 387 0
DWIDTH 12 0
BBX 10 12 1 0
BITMAP
3300
0000
1E00
6180
6180
C0C0
E1C0
C0C0
E1C0
6180
6180
1E00
ENDCHAR
STARTCHAR c130
ENCODING -1 130
SWIDTH 354 0
DWIDTH 11 0
BBX 9 12 1 0
BITMAP
3300
0000
F380
6100
6100
6100
6100
6100
6100
6100
7300
3E00
ENDCHAR
STARTCHAR c131
ENCODING -1 131
SWIDTH 258 0
DWIDTH 8 0
BBX 7 11 0 0
BITMAP
6C
6C
00
78
CC
0C
3C
CC
CC
DC
EE
ENDCHAR
STARTCHAR c132
ENCODING -1 132
SWIDTH 290 0
DWIDTH 9 0
BBX 6 11 1 0
BITMAP
CC
CC
00
78
CC
CC
CC
CC
CC
CC
78
ENDCHAR
STARTCHAR c133
ENCODING -1 133
SWIDTH 290 0
DWIDTH 9 0
BBX 8 11 0 0
BITMAP
66
66
00
EE
66
66
66
66
66
6E
77
ENDCHAR
STARTCHAR c134
ENCODING -1 134
SWIDTH 258 0
DWIDTH 8 0
BBX 7 12 0 0
BITMAP
30
48
CC
00
78
CC
0C
3C
CC
CC
DC
EE
ENDCHAR
STARTCHAR c135
ENCODING -1 135
SWIDTH 258 0
DWIDTH 8 0
BBX 6 12 1 0
BITMAP
30
48
CC
00
38
4C
CC
FC
C0
C0
E4
78
ENDCHAR
STARTCHAR c136
ENCODING -1 136
SWIDTH 161 0
DWIDTH 5 0
BBX 4 12 0 0
BITMAP
60
90
90
00
E0
60
60
60
60
60
60
F0
ENDCHAR
STARTCHAR c137
ENCODING -1 137
SWIDTH 290 0
DWIDTH 9 0
BBX 6 12 1 0
BITMAP
30
48
CC
00
78
CC
CC
CC
CC
CC
CC
78
ENDCHAR
STARTCHAR c138
ENCODING -1 138
SWIDTH 290 0
DWIDTH 9 0
BBX 8 12 0 0
BITMAP
18
24
66
00
EE
66
66
66
66
66
6E
77
ENDCHAR
STARTCHAR c139
ENCODING -1 139
SWIDTH 258 0
DWIDTH 8 0
BBX 7 12 0 0
BITMAP
60
20
10
00
78
CC
0C
3C
CC
CC
DC
EE
ENDCHAR
STARTCHAR c140
ENCODING -1 140
SWIDTH 258 0
DWIDTH 8 0
BBX 6 12 1 0
BITMAP
60
20
10
00
38
4C
CC
FC
C0
C0
E4
78
ENDCHAR
STARTCHAR c141
ENCODING -1 141
SWIDTH 161 0
DWIDTH 5 0
BBX 4 12 0 0
BITMAP
C0
40
20
00
E0
60
60
60
60
60
60
F0
ENDCHAR
STARTCHAR c142
ENCODING -1 142
SWIDTH 290 0
DWIDTH 9 0
BBX 6 12 1 0
BITMAP
60
20
10
00
78
CC
CC
CC
CC
CC
CC
78
ENDCHAR
STARTCHAR c143
ENCODING -1 143
SWIDTH 290 0
DWIDTH 9 0
BBX 8 12 0 0
BITMAP
30
10
08
00
EE
66
66
66
66
66
6E
77
ENDCHAR
STARTCHAR c144
ENCODING -1 144
SWIDTH 258 0
DWIDTH 8 0
BBX 6 12 1 0
BITMAP
0C
08
10
00
38
4C
CC
FC
C0
C0
E4
78
ENDCHAR
STARTCHAR c145
ENCODING -1 145
SWIDTH 258 0
DWIDTH 8 0
BBX 6 11 1 0
BITMAP
6C
6C
00
38
4C
CC
FC
C0
C0
E4
78
ENDCHAR
STARTCHAR c146
ENCODING -1 146
SWIDTH 161 0
DWIDTH 5 0
BBX 4 11 0 0
BITMAP
90
90
00
E0
60
60
60
60
60
60
F0
ENDCHAR
STARTCHAR c147
ENCODING -1 147
SWIDTH 225 0
DWIDTH 7 0
BBX 6 12 1 -4
BITMAP
38
4C
CC
C0
C0
C0
E4
78
00
30
10
20
ENDCHAR
STARTCHAR c148
ENCODING -1 148
SWIDTH 258 0
DWIDTH 8 0
BBX 7 12 0 0
BITMAP
0C
08
10
00
78
CC
CC
3C
CC
CC
DC
EE
ENDCHAR
STARTCHAR c149
ENCODING -1 149
SWIDTH 290 0
DWIDTH 9 0
BBX 8 11 0 0
BITMAP
3A
5C
00
EE
76
66
66
66
66
66
F7
ENDCHAR
STARTCHAR c155
ENCODING -1 155
SWIDTH 258 0
DWIDTH 8 0
BBX 8 1 0 4
BITMAP
FF
ENDCHAR
STARTCHAR c159
ENCODING -1 159
SWIDTH 258 0
DWIDTH 8 0
BBX 0 0 0 0
BITMAP
ENDCHAR
ENDFONT
